<svg xmlns="http://www.w3.org/2000/svg" width="207" height="59" viewBox="0 0 207 59">
  <g id="andriod" transform="translate(0.333 0.224)">
    <rect id="Rectangle_8" data-name="Rectangle 8" width="207" height="59" rx="2.21" transform="translate(-0.333 -0.224)" fill="#fff"/>
    <path id="Path_13" data-name="Path 13" d="M59.72,29h1.607v4.861a8.17,8.17,0,0,1-2.342,1.28,8.047,8.047,0,0,1-2.723.463,6.945,6.945,0,0,1-3.35-.9,6.7,6.7,0,0,1-2.519-2.451,6.631,6.631,0,0,1-.912-3.418,6.55,6.55,0,0,1,.926-3.4A6.9,6.9,0,0,1,52.912,23a7.326,7.326,0,0,1,3.568-.885,7.734,7.734,0,0,1,2.723.49,7.135,7.135,0,0,1,2.274,1.362l-1.035,1.362a5.9,5.9,0,0,0-1.825-1.144,5.705,5.705,0,0,0-2.111-.409,5.2,5.2,0,0,0-2.614.681,5.038,5.038,0,0,0-1.879,1.866,5.12,5.12,0,0,0,0,5.147,5.324,5.324,0,0,0,1.893,1.879,5.147,5.147,0,0,0,2.614.694,5.842,5.842,0,0,0,1.7-.272,6.645,6.645,0,0,0,1.5-.831Z" transform="translate(17.896 7.997)"/>
    <path id="Path_14" data-name="Path 14" d="M67.705,25.17a4.684,4.684,0,0,1,1.852,1.8,5.583,5.583,0,0,1,0,5.242,4.63,4.63,0,0,1-1.811,1.811,5.882,5.882,0,0,1-5.338,0,4.725,4.725,0,0,1-1.825-1.8,5.243,5.243,0,0,1-.654-2.642,5.174,5.174,0,0,1,.654-2.614,4.725,4.725,0,0,1,1.784-1.8A5.882,5.882,0,0,1,67.705,25.17Zm-4.412,1.362a3.118,3.118,0,0,0-1.2,1.253,4.248,4.248,0,0,0,0,3.69,2.955,2.955,0,0,0,1.2,1.253,3.608,3.608,0,0,0,3.486,0,2.928,2.928,0,0,0,1.185-1.253,4.085,4.085,0,0,0,0-3.69,3.091,3.091,0,0,0-1.13-1.253,3.608,3.608,0,0,0-3.486,0Z" transform="translate(21.675 8.872)"/>
    <path id="Path_15" data-name="Path 15" d="M76.35,25.17a4.725,4.725,0,0,1,1.825,1.8,5.583,5.583,0,0,1,0,5.242,4.671,4.671,0,0,1-1.825,1.811,5.447,5.447,0,0,1-2.723.64,5.542,5.542,0,0,1-2.723-.64,4.684,4.684,0,0,1-1.729-1.8,5.242,5.242,0,0,1-.654-2.642,5.174,5.174,0,0,1,.654-2.614,4.684,4.684,0,0,1,1.838-1.8,5.542,5.542,0,0,1,2.723-.64,5.447,5.447,0,0,1,2.614.64ZM71.9,26.532a3.186,3.186,0,0,0-1.185,1.253,4.085,4.085,0,0,0,0,3.69A3.009,3.009,0,0,0,71.9,32.728a3.445,3.445,0,0,0,1.757.449,3.336,3.336,0,0,0,1.729-.449,2.955,2.955,0,0,0,1.2-1.253,4.248,4.248,0,0,0,0-3.69,3.118,3.118,0,0,0-1.2-1.253,3.336,3.336,0,0,0-1.729-.449,3.445,3.445,0,0,0-1.757.449Z" transform="translate(24.782 8.872)"/>
    <path id="Path_16" data-name="Path 16" d="M87.015,24.578v9a4.834,4.834,0,0,1-.64,2.478,4.085,4.085,0,0,1-1.784,1.661,5.991,5.991,0,0,1-2.723.586,6.808,6.808,0,0,1-4.085-1.362l.776-1.362a5.052,5.052,0,0,0,1.525.9,5.147,5.147,0,0,0,1.743.3,3.5,3.5,0,0,0,2.478-.871,3.023,3.023,0,0,0,.926-2.328V32.217a3.717,3.717,0,0,1-1.362,1.362,4.208,4.208,0,0,1-2.083.5,4.6,4.6,0,0,1-2.383-.613,4.221,4.221,0,0,1-1.593-1.716,5.324,5.324,0,0,1-.64-2.506,5.243,5.243,0,0,1,.572-2.478,4.085,4.085,0,0,1,1.593-1.607,4.6,4.6,0,0,1,2.383-.613,4.276,4.276,0,0,1,2.083.49A3.717,3.717,0,0,1,85.163,26.4V24.578Zm-3.268,7.707a3.05,3.05,0,0,0,1.117-1.2,3.922,3.922,0,0,0,0-3.486,2.969,2.969,0,0,0-1.117-1.2,3.363,3.363,0,0,0-3.309,0,2.941,2.941,0,0,0-1.144,1.2,3.636,3.636,0,0,0-.422,1.757,3.472,3.472,0,0,0,.912,2.41,3.009,3.009,0,0,0,2.315.953,3.2,3.2,0,0,0,1.648-.436Z" transform="translate(27.911 8.879)"/>
    <path id="Path_17" data-name="Path 17" d="M86.83,21.61H88.6V35.663H86.83Z" transform="translate(31.405 7.816)"/>
    <path id="Path_18" data-name="Path 18" d="M98.524,25.911a5.637,5.637,0,0,1,1.185,3.813V30.3H91.784a3.431,3.431,0,0,0,1.13,2.138,3.323,3.323,0,0,0,2.26.79,4.385,4.385,0,0,0,1.634-.313,4,4,0,0,0,1.362-.926l.967.994a4.957,4.957,0,0,1-1.77,1.239,6.046,6.046,0,0,1-2.315.436,5.311,5.311,0,0,1-2.614-.64,4.412,4.412,0,0,1-1.784-1.784A5.447,5.447,0,0,1,90,29.615a5.324,5.324,0,0,1,.64-2.628,4.589,4.589,0,0,1,1.77-1.811A5.079,5.079,0,0,1,95,24.522,4.453,4.453,0,0,1,98.524,25.911Zm-.354,3.023a2.914,2.914,0,0,0-3.1-2.941,3.214,3.214,0,0,0-2.206.79,3.35,3.35,0,0,0-1.048,2.151Z" transform="translate(32.551 8.866)"/>
    <path id="Path_19" data-name="Path 19" d="M111.616,23.378a4.085,4.085,0,0,1,1.362,3.3,4.357,4.357,0,0,1-1.362,3.431,5.515,5.515,0,0,1-3.826,1.226h-3.309v4.085H102.67V22.193h5.106a5.665,5.665,0,0,1,3.84,1.185Zm-1.362,5.556a2.723,2.723,0,0,0,.912-2.206,2.574,2.574,0,0,0-.912-2.151,4.085,4.085,0,0,0-2.6-.735h-3.227v5.814h3.227a4.085,4.085,0,0,0,2.655-.722Z" transform="translate(37.134 8.023)"/>
    <path id="Path_20" data-name="Path 20" d="M111.94,21.61H113.7V35.663H111.94Z" transform="translate(40.487 7.816)"/>
    <path id="Path_21" data-name="Path 21" d="M122.169,34.616V33.254a4.755,4.755,0,0,1-5.324,1.062,2.9,2.9,0,0,1-1.634-2.723,2.533,2.533,0,0,1,.994-2.124,4.371,4.371,0,0,1,2.723-.817h3.186v-.463a2.111,2.111,0,0,0-.654-1.648,2.819,2.819,0,0,0-1.906-.572,5.447,5.447,0,0,0-3.077,1.076l-.749-1.212a9.177,9.177,0,0,1,2-1.008,6.972,6.972,0,0,1,2.192-.313,4.167,4.167,0,0,1,2.887.912A3.35,3.35,0,0,1,123.857,28v6.591Zm-1.048-1.988a2.342,2.342,0,0,0,1.035-1.58v-.994h-2.941a3.418,3.418,0,0,0-1.77.354,1.239,1.239,0,0,0-.572,1.13,1.471,1.471,0,0,0,.586,1.239,2.533,2.533,0,0,0,1.58.449,3.486,3.486,0,0,0,2.083-.6Z" transform="translate(41.669 8.862)"/>
    <path id="Path_22" data-name="Path 22" d="M126.364,37.744a2.941,2.941,0,0,1-1.838.586,3.513,3.513,0,0,1-1.171-.191,3.785,3.785,0,0,1-1.035-.586l.763-1.362a2.233,2.233,0,0,0,1.362.477,1.825,1.825,0,0,0,1.7-1.28l.381-.9-4.153-9.9h1.865l3.173,8.034,3.009-8.034h1.8l-4.589,11.452a4,4,0,0,1-1.266,1.7Z" transform="translate(44.241 8.894)"/>
    <path id="Path_23" data-name="Path 23" d="M54.6,14.3h.844v2.546a4,4,0,0,1-1.239.667,4.248,4.248,0,0,1-1.362.259,3.7,3.7,0,0,1-1.838-.477,3.5,3.5,0,0,1-1.8-3.091,3.377,3.377,0,0,1,.449-1.743,3.445,3.445,0,0,1,1.362-1.28,3.758,3.758,0,0,1,1.866-.463,3.894,3.894,0,0,1,1.362.259,3.622,3.622,0,0,1,1.2.708l-.545.694a2.955,2.955,0,0,0-.967-.6,2.791,2.791,0,0,0-1.1-.218,2.832,2.832,0,0,0-1.362.354,2.723,2.723,0,0,0-.98.98,2.574,2.574,0,0,0-.368,1.362,2.73,2.73,0,0,0,2.723,2.71,2.941,2.941,0,0,0,.885-.15,3.677,3.677,0,0,0,.844-.395Z" transform="translate(17.798 3.877)" fill="#666"/>
    <path id="Path_24" data-name="Path 24" d="M55.12,10.73h4.834V11.6H56.073v2.138h3.472v.871H56.073v2.22h4v.858H55.12Z" transform="translate(19.936 3.881)" fill="#666"/>
    <path id="Path_25" data-name="Path 25" d="M59.23,10.73h5.447V11.6h-2.26v6.087h-.953V11.6H59.23Z" transform="translate(21.422 3.881)" fill="#666"/>
    <path id="Path_26" data-name="Path 26" d="M65.94,10.73h.953v6.958H65.94Z" transform="translate(23.849 3.881)" fill="#666"/>
    <path id="Path_27" data-name="Path 27" d="M67.45,10.73H72.9V11.6h-2.26v6.087h-.953V11.6H67.45Z" transform="translate(24.395 3.881)" fill="#666"/>
    <path id="Path_28" data-name="Path 28" d="M79.211,11.123a3.527,3.527,0,0,1,0,6.155,3.813,3.813,0,0,1-3.69,0,3.458,3.458,0,0,1-1.334-4.793,3.54,3.54,0,0,1,1.28-1.362A3.649,3.649,0,0,1,77.3,10.66a3.7,3.7,0,0,1,1.906.463Zm-3.186.749a2.708,2.708,0,0,0,1.348,5.052,2.519,2.519,0,0,0,1.362-.368,2.6,2.6,0,0,0,.98-.98,2.655,2.655,0,0,0,0-2.723,2.724,2.724,0,0,0-.98-.967,2.506,2.506,0,0,0-1.362-.354,2.628,2.628,0,0,0-1.348.381Z" transform="translate(26.659 3.855)" fill="#666"/>
    <path id="Path_29" data-name="Path 29" d="M85.047,10.73h.94v6.958h-.967L81.043,12.31v5.379H80.09V10.73h.967l3.99,5.447Z" transform="translate(28.967 3.881)" fill="#666"/>
    <path id="Path_30" data-name="Path 30" d="M17,10.64V41.55L33.272,25.823Z" transform="translate(6.149 3.848)" fill="#5cdadd"/>
    <path id="Path_31" data-name="Path 31" d="M37.493,21.547l-6.441-3.69L17,10.64,33.272,25.823Z" transform="translate(6.149 3.848)" fill="#bdecc4"/>
    <path id="Path_32" data-name="Path 32" d="M17,37.517h0l14.053-7.748,6.441-3.69L33.272,21.79Z" transform="translate(6.149 7.881)" fill="#dc68a1"/>
    <path id="Path_33" data-name="Path 33" d="M33.153,18.65,29,22.926l4.221,4.289,6.563-3.8a.5.5,0,0,0,0-.912Z" transform="translate(10.489 6.745)" fill="#ffca96"/>
  </g>
</svg>
