<svg xmlns="http://www.w3.org/2000/svg" width="207" height="59" viewBox="0 0 207 59">
  <g id="ios" transform="translate(-0.309 0.224)">
    <rect id="Rectangle_9" data-name="Rectangle 9" width="207" height="59" rx="2.21" transform="translate(0.309 -0.224)" fill="#fff"/>
    <path id="Path_34" data-name="Path 34" d="M61.642,35.6l-1.362-3.214H53.254L51.893,35.6H50L55.882,22.35h1.893L63.617,35.6Zm-7.666-4.861h5.556L56.808,24.3Z" transform="translate(18.084 8.084)"/>
    <path id="Path_35" data-name="Path 35" d="M69.326,25.317a4.344,4.344,0,0,1,1.7,1.8,5.515,5.515,0,0,1,.613,2.642,5.624,5.624,0,0,1-.6,2.628,4.357,4.357,0,0,1-1.688,1.784,4.834,4.834,0,0,1-2.492.626,4.548,4.548,0,0,1-2.233-.531,3.84,3.84,0,0,1-1.511-1.511v5.665H61.36V24.8h1.757v1.988a3.84,3.84,0,0,1,1.5-1.525,4.48,4.48,0,0,1,2.206-.531,4.807,4.807,0,0,1,2.505.586Zm-1.1,7.489a3.132,3.132,0,0,0,1.185-1.266A3.9,3.9,0,0,0,69.83,29.7a3.677,3.677,0,0,0-.436-1.811,3.132,3.132,0,0,0-1.185-1.266,3.186,3.186,0,0,0-1.729-.463,3.254,3.254,0,0,0-1.729.463,3.159,3.159,0,0,0-1.2,1.266,3.826,3.826,0,0,0-.436,1.811,3.908,3.908,0,0,0,.477,1.852,3.214,3.214,0,0,0,1.2,1.253,3.486,3.486,0,0,0,3.472,0Z" transform="translate(22.193 8.943)"/>
    <path id="Path_36" data-name="Path 36" d="M78.759,25.317a4.426,4.426,0,0,1,1.7,1.8,5.678,5.678,0,0,1,.6,2.642,5.447,5.447,0,0,1-.6,2.628,4.316,4.316,0,0,1-1.675,1.784,4.916,4.916,0,0,1-2.492.626,4.548,4.548,0,0,1-2.233-.531,3.785,3.785,0,0,1-1.525-1.511v5.665H70.78V24.8h1.757v1.988a3.785,3.785,0,0,1,1.511-1.525,4.48,4.48,0,0,1,2.206-.531A4.807,4.807,0,0,1,78.759,25.317Zm-1.117,7.489a3.077,3.077,0,0,0,1.2-1.266A3.894,3.894,0,0,0,79.25,29.7a3.826,3.826,0,0,0-.436-1.811,3.078,3.078,0,0,0-1.2-1.266,3.173,3.173,0,0,0-1.716-.463,3.282,3.282,0,0,0-2.941,1.729,3.826,3.826,0,0,0-.436,1.811,3.908,3.908,0,0,0,.436,1.852,3.254,3.254,0,0,0,1.212,1.253,3.459,3.459,0,0,0,3.459,0Z" transform="translate(25.6 8.943)"/>
    <path id="Path_37" data-name="Path 37" d="M90.1,24.269a6.645,6.645,0,0,0-1.825-.286,3.486,3.486,0,0,0-1.852.436,1.362,1.362,0,0,0-.681,1.226,1.634,1.634,0,0,0,.409,1.144,3.186,3.186,0,0,0,1.021.708c.408.163.967.368,1.688.586a19.282,19.282,0,0,1,2.179.8A3.745,3.745,0,0,1,92.4,30a3.118,3.118,0,0,1,.586,1.988,3.336,3.336,0,0,1-.613,1.988,3.908,3.908,0,0,1-1.716,1.362,6.536,6.536,0,0,1-2.546.463,7.625,7.625,0,0,1-2.846-.558A7.53,7.53,0,0,1,82.88,33.72l.817-1.566a6.944,6.944,0,0,0,2.124,1.43,5.76,5.76,0,0,0,2.3.5,3.758,3.758,0,0,0,2.1-.517,1.648,1.648,0,0,0,.763-1.362,1.62,1.62,0,0,0-.422-1.157,2.941,2.941,0,0,0-1.048-.722c-.422-.177-.994-.368-1.716-.586a15.59,15.59,0,0,1-2.029-.885,3.745,3.745,0,0,1-1.362-1.117,3.445,3.445,0,0,1,0-3.826,3.758,3.758,0,0,1,1.648-1.239,6.277,6.277,0,0,1,2.465-.436,7.966,7.966,0,0,1,2.328.34,8.81,8.81,0,0,1,2.043.94l-.763,1.634A7.639,7.639,0,0,0,90.1,24.269Z" transform="translate(29.976 8.043)"/>
    <path id="Path_38" data-name="Path 38" d="M97.983,34.7a4.208,4.208,0,0,1-2.342.749,2.723,2.723,0,0,1-1.934-.722,2.832,2.832,0,0,1-.735-2.192V27.085H91.61V25.723h1.362V23h1.784v2.723h3.064v1.362H94.755v5.174a1.865,1.865,0,0,0,.3,1.2,1.144,1.144,0,0,0,.912.354,3.227,3.227,0,0,0,1.62-.477Z" transform="translate(33.134 8.319)"/>
    <path id="Path_39" data-name="Path 39" d="M104.856,25.334a4.562,4.562,0,0,1,1.811,1.784,5.188,5.188,0,0,1,.654,2.628,5.256,5.256,0,0,1-.654,2.628,4.684,4.684,0,0,1-1.811,1.8,5.882,5.882,0,0,1-5.338,0,4.684,4.684,0,0,1-1.825-1.784,5.637,5.637,0,0,1,0-5.27,4.6,4.6,0,0,1,1.825-1.784A5.773,5.773,0,0,1,104.856,25.334ZM100.444,26.7a3.159,3.159,0,0,0-1.2,1.266,3.8,3.8,0,0,0-.422,1.825,3.908,3.908,0,0,0,.422,1.852,3.078,3.078,0,0,0,1.2,1.266,3.486,3.486,0,0,0,1.743.436,3.527,3.527,0,0,0,1.743-.436,3.132,3.132,0,0,0,1.185-1.266,3.908,3.908,0,0,0,.436-1.852,3.8,3.8,0,0,0-.436-1.825A3.213,3.213,0,0,0,103.93,26.7a3.391,3.391,0,0,0-1.743-.449,3.35,3.35,0,0,0-1.743.422Z" transform="translate(35.098 8.926)"/>
    <path id="Path_40" data-name="Path 40" d="M109.559,25.266a4.235,4.235,0,0,1,2.165-.586V26.4a3.323,3.323,0,0,0-2.478.79,3.377,3.377,0,0,0-1.089,2.288v5.283H106.4V24.748h1.757V26.9a3.608,3.608,0,0,1,1.4-1.634Z" transform="translate(38.483 8.926)"/>
    <path id="Path_41" data-name="Path 41" d="M119.49,26.058a5.583,5.583,0,0,1,1.2,3.813q0,.388,0,.572h-7.925a3.459,3.459,0,0,0,1.13,2.138,3.322,3.322,0,0,0,2.26.8,4.207,4.207,0,0,0,1.661-.327,4.085,4.085,0,0,0,1.362-.912l.967,1.008a4.97,4.97,0,0,1-1.784,1.226,5.733,5.733,0,0,1-2.3.436,5.324,5.324,0,0,1-2.628-.626,4.439,4.439,0,0,1-1.784-1.8,5.828,5.828,0,0,1,0-5.256,4.671,4.671,0,0,1,1.77-1.8,5.12,5.12,0,0,1,2.6-.654,4.4,4.4,0,0,1,3.472,1.375Zm-.327,3.023a2.914,2.914,0,0,0-3.1-2.941,3.159,3.159,0,0,0-2.206.8A3.309,3.309,0,0,0,112.8,29.08Z" transform="translate(40.154 8.924)"/>
    <path id="Path_42" data-name="Path 42" d="M55.311,11.339a3.431,3.431,0,0,1,1.362,1.239,3.6,3.6,0,0,1,.463,1.784,3.418,3.418,0,0,1-1.77,3.037,3.84,3.84,0,0,1-1.92.449H50.64V10.89h2.832a3.745,3.745,0,0,1,1.838.449Zm-.5,5.3a2.451,2.451,0,0,0,.94-.926,2.6,2.6,0,0,0,.34-1.362,2.533,2.533,0,0,0-1.362-2.288,2.723,2.723,0,0,0-1.362-.34h-1.77V16.95H53.5a2.533,2.533,0,0,0,1.307-.313Z" transform="translate(18.316 3.939)" fill="#666"/>
    <path id="Path_43" data-name="Path 43" d="M60,12.45a2.533,2.533,0,0,1,.953.94,2.894,2.894,0,0,1,0,2.723,2.342,2.342,0,0,1-.953.94,2.819,2.819,0,0,1-1.362.34,2.723,2.723,0,0,1-1.362-.34,2.26,2.26,0,0,1-.953-.94,2.873,2.873,0,0,1,0-2.723,2.437,2.437,0,0,1,.953-.94,2.928,2.928,0,0,1,1.362-.34A2.968,2.968,0,0,1,60,12.45Zm-2.328.708a1.743,1.743,0,0,0-.626.667,2.138,2.138,0,0,0-.218.953,2.26,2.26,0,0,0,.218.98,1.607,1.607,0,0,0,.626.654,1.77,1.77,0,0,0,.926.231,1.716,1.716,0,0,0,.912-.231,1.525,1.525,0,0,0,.626-.654,2.083,2.083,0,0,0,.218-.98,1.975,1.975,0,0,0-.218-.953,1.648,1.648,0,0,0-.626-.667,1.729,1.729,0,0,0-.912-.245,1.77,1.77,0,0,0-.926.245Z" transform="translate(20.246 4.38)" fill="#666"/>
    <path id="Path_44" data-name="Path 44" d="M60.05,12.13h.967l1.471,4.357,1.457-4.357h.967l1.457,4.357,1.457-4.357h.953L66.79,17.4h-.967l-1.457-4.085L62.978,17.4h-.967Z" transform="translate(21.719 4.387)" fill="#666"/>
    <path id="Path_45" data-name="Path 45" d="M71.51,12.647a2.056,2.056,0,0,1,.531,1.5V17.4h-.926V14.39a1.362,1.362,0,0,0-1.362-1.362,1.566,1.566,0,0,0-1.157.449,1.729,1.729,0,0,0-.49,1.144V17.4H67.18V12.13h.926v1.185a2,2,0,0,1,1.988-1.144,1.961,1.961,0,0,1,1.416.477Z" transform="translate(24.298 4.387)" fill="#666"/>
    <path id="Path_46" data-name="Path 46" d="M72,10.58h.926v7.38H72Z" transform="translate(26.041 3.827)" fill="#666"/>
    <path id="Path_47" data-name="Path 47" d="M77.734,12.45a2.437,2.437,0,0,1,.953.94,2.8,2.8,0,0,1,0,2.723,2.26,2.26,0,0,1-.953.94,2.723,2.723,0,0,1-1.362.34,2.832,2.832,0,0,1-1.362-.34,2.342,2.342,0,0,1-.953-.94,2.982,2.982,0,0,1,0-2.723,2.533,2.533,0,0,1,.953-.94,2.982,2.982,0,0,1,1.362-.34A2.914,2.914,0,0,1,77.734,12.45Zm-2.315.708a1.648,1.648,0,0,0-.626.667,1.974,1.974,0,0,0-.218.953,2.083,2.083,0,0,0,.218.98,1.525,1.525,0,0,0,.626.654,1.947,1.947,0,0,0,1.838,0,1.607,1.607,0,0,0,.626-.654,2.083,2.083,0,0,0,.218-.98,1.975,1.975,0,0,0-.218-.953,1.784,1.784,0,0,0-2.424-.667Z" transform="translate(26.666 4.38)" fill="#666"/>
    <path id="Path_48" data-name="Path 48" d="M81.913,17.4v-.735a2.179,2.179,0,0,1-1.852.776,1.975,1.975,0,0,1-.953-.218,1.484,1.484,0,0,1-.858-1.362,1.362,1.362,0,0,1,.517-1.117,2.41,2.41,0,0,1,1.457-.422H81.9v-.245a1.13,1.13,0,0,0-.34-.858,1.484,1.484,0,0,0-1.008-.3,2.846,2.846,0,0,0-1.62.558l-.381-.64A4.466,4.466,0,0,1,79.6,12.3a3.5,3.5,0,0,1,1.144-.163,2.179,2.179,0,0,1,1.525.49,1.716,1.716,0,0,1,.545,1.362v3.4Zm-.558-1.035a1.362,1.362,0,0,0,.545-.831V15H80.361a1.729,1.729,0,0,0-.94.191.64.64,0,0,0-.3.6.79.79,0,0,0,.313.64,1.266,1.266,0,0,0,.817.245A1.92,1.92,0,0,0,81.355,16.362Z" transform="translate(28.301 4.39)" fill="#666"/>
    <path id="Path_49" data-name="Path 49" d="M87.867,10.58v7.38h-.926V16.912a2.111,2.111,0,0,1-.8.817A2.274,2.274,0,0,1,84.98,18a2.478,2.478,0,0,1-1.362-.34,2.424,2.424,0,0,1-.9-.953,3.241,3.241,0,0,1,0-2.723,2.478,2.478,0,0,1,.9-.94,2.587,2.587,0,0,1,1.362-.327,2.383,2.383,0,0,1,1.185.272,1.947,1.947,0,0,1,.79.8V10.58Zm-1.784,6.4a1.648,1.648,0,0,0,.626-.667,2.165,2.165,0,0,0,0-1.947,1.648,1.648,0,0,0-.626-.667,1.866,1.866,0,0,0-.926-.231,1.729,1.729,0,0,0-.912.245,1.77,1.77,0,0,0-.64.667,2.029,2.029,0,0,0-.218.967,2.056,2.056,0,0,0,.218.967,1.77,1.77,0,0,0,.64.667,1.947,1.947,0,0,0,1.838,0Z" transform="translate(29.81 3.827)" fill="#666"/>
    <path id="Path_50" data-name="Path 50" d="M93.394,12.45a2.437,2.437,0,0,1,.953.94,2.8,2.8,0,0,1,0,2.723,2.26,2.26,0,0,1-.953.94,2.723,2.723,0,0,1-1.362.34,2.832,2.832,0,0,1-1.362-.34,2.342,2.342,0,0,1-.953-.94,2.982,2.982,0,0,1,0-2.723,2.533,2.533,0,0,1,.953-.94,2.982,2.982,0,0,1,1.362-.34A2.914,2.914,0,0,1,93.394,12.45Zm-2.315.708a1.648,1.648,0,0,0-.626.667,1.974,1.974,0,0,0-.218.953,2.083,2.083,0,0,0,.218.98,1.525,1.525,0,0,0,.626.654,1.729,1.729,0,0,0,.926.231,1.675,1.675,0,0,0,.9-.231,1.457,1.457,0,0,0,.626-.654,2.083,2.083,0,0,0,.231-.98,1.974,1.974,0,0,0-.231-.953,1.552,1.552,0,0,0-.626-.667,1.675,1.675,0,0,0-.9-.245,1.743,1.743,0,0,0-.926.245Z" transform="translate(32.33 4.38)" fill="#666"/>
    <path id="Path_51" data-name="Path 51" d="M98.6,12.647a2.056,2.056,0,0,1,.531,1.5V17.4h-.926V14.39a1.362,1.362,0,0,0-1.362-1.362,1.566,1.566,0,0,0-1.157.449,1.811,1.811,0,0,0-.5,1.144V17.4H94.27V12.13h.912v1.185a2.043,2.043,0,0,1,2-1.144,1.961,1.961,0,0,1,1.416.477Z" transform="translate(34.096 4.387)" fill="#666"/>
    <path id="Path_52" data-name="Path 52" d="M103.9,17.357a2.288,2.288,0,0,1-1.239.395,1.362,1.362,0,0,1-1.008-.381,1.5,1.5,0,0,1-.395-1.13V13.326h-.749v-.694h.749V11.27h.94v1.362h1.7v.694h-1.607V16.05a1.062,1.062,0,0,0,.15.626.613.613,0,0,0,.477.191,1.648,1.648,0,0,0,.817-.245Z" transform="translate(36.353 4.076)" fill="#666"/>
    <path id="Path_53" data-name="Path 53" d="M108.274,13.208a2.056,2.056,0,0,1,.531,1.5V17.96h-.926V14.951a1.362,1.362,0,0,0-1.362-1.362,1.511,1.511,0,0,0-1.212.517,1.866,1.866,0,0,0-.449,1.362V17.96h-.926V10.58h.926v3.3a2.029,2.029,0,0,1,2-1.171,1.961,1.961,0,0,1,1.416.5Z" transform="translate(37.59 3.827)" fill="#666"/>
    <path id="Path_54" data-name="Path 54" d="M112.81,12.824a2.968,2.968,0,0,1,.64,2v.3h-4.208a1.838,1.838,0,0,0,.6,1.13,1.8,1.8,0,0,0,1.185.422,2.315,2.315,0,0,0,.871-.177,2.1,2.1,0,0,0,.708-.477l.5.531a2.723,2.723,0,0,1-.94.64,3.146,3.146,0,0,1-1.212.231A2.819,2.819,0,0,1,109.6,17.1a2.492,2.492,0,0,1-.94-.94,2.9,2.9,0,0,1-.327-1.362,2.819,2.819,0,0,1,.327-1.362,2.438,2.438,0,0,1,.94-.953,2.723,2.723,0,0,1,1.362-.34,2.288,2.288,0,0,1,1.852.681Zm-.2,1.593a1.579,1.579,0,0,0-.477-1.13,1.62,1.62,0,0,0-1.157-.409,1.688,1.688,0,0,0-1.157.409,1.784,1.784,0,0,0-.545,1.13Z" transform="translate(39.181 4.388)" fill="#666"/>
    <path id="Path_55" data-name="Path 55" d="M25.579,40.161c-4.7,0-8.579-9.613-8.579-14.488,0-7.979,5.978-9.654,8.293-9.654a9.7,9.7,0,0,1,3.118.763,6.809,6.809,0,0,0,1.784.517,5.447,5.447,0,0,0,1.28-.409,10.213,10.213,0,0,1,3.867-.94h0A7.884,7.884,0,0,1,41.96,19.3l.477.722-.694.517a5.869,5.869,0,0,0-2.805,4.834A5.447,5.447,0,0,0,41.973,30.4c.436.259.9.531.9,1.13,0,.381-3.077,8.66-7.544,8.66a5.937,5.937,0,0,1-2.56-.626,5.215,5.215,0,0,0-2.26-.545,5.964,5.964,0,0,0-1.8.49,8.81,8.81,0,0,1-3.118.722Z" transform="translate(6.149 5.768)" fill="#aaa"/>
    <path id="Path_56" data-name="Path 56" d="M32.395,10.56c.109,4.194-2.887,7.108-5.882,6.931C26.022,14.141,29.508,10.56,32.395,10.56Z" transform="translate(9.572 3.819)" fill="#aaa"/>
  </g>
</svg>
