<svg id="whatsapp" xmlns="http://www.w3.org/2000/svg" width="136" height="136" viewBox="0 0 136 136">
  <path id="Path_57" data-name="Path 57" d="M68.017,0h-.034A67.958,67.958,0,0,0,12.946,107.856L4.471,133.118l26.138-8.355A67.988,67.988,0,1,0,68.017,0Z" fill="#e56207"/>
  <path id="Path_58" data-name="Path 58" d="M186.357,182.011c-1.641,4.633-8.152,8.475-13.345,9.6-3.553.757-8.194,1.36-23.817-5.117-19.984-8.279-32.853-28.585-33.855-29.9-.96-1.318-8.075-10.753-8.075-20.51a21.709,21.709,0,0,1,6.953-16.549,9.88,9.88,0,0,1,6.953-2.439c.842,0,1.6.042,2.278.076,2,.085,3,.2,4.318,3.358,1.64,3.952,5.635,13.711,6.111,14.713a4.048,4.048,0,0,1,.289,3.68,11.751,11.751,0,0,1-2.2,3.12c-1,1.156-1.955,2.04-2.958,3.281-.918,1.079-1.955,2.236-.8,4.233a60.357,60.357,0,0,0,11.033,13.711,49.993,49.993,0,0,0,15.946,9.834,4.3,4.3,0,0,0,4.794-.757,82.272,82.272,0,0,0,5.313-7.038,3.8,3.8,0,0,1,4.879-1.479c1.836.637,11.551,5.44,13.549,6.434s3.315,1.479,3.8,2.32S188,177.37,186.357,182.011Z" transform="translate(-78.772 -85.987)" fill="#fafafa"/>
</svg>
